<?xml version="1.0" standalone="no"?>
<!DOCTYPE svg PUBLIC "-//W3C//DTD SVG 20010904//EN"
 "http://www.w3.org/TR/2001/REC-SVG-20010904/DTD/svg10.dtd">
<svg version="1.0" xmlns="http://www.w3.org/2000/svg"
 width="294.000000pt" height="294.000000pt" viewBox="0 0 294.000000 294.000000"
 preserveAspectRatio="xMidYMid meet">
<metadata>
Created by potrace 1.11, written by Peter Selinger 2001-2013
</metadata>
<g transform="translate(0.000000,294.000000) scale(0.100000,-0.100000)"
fill="#000000" stroke="none">
<path d="M1960 2305 c0 -30 5 -55 10 -55 6 0 10 9 10 20 0 13 7 20 20 20 11 0
20 5 20 10 0 6 -9 10 -20 10 -11 0 -20 7 -20 15 0 8 9 15 20 15 11 0 20 5 20
10 0 6 -13 10 -30 10 -30 0 -30 -1 -30 -55z"/>
<path d="M2130 2317 c0 -45 13 -67 41 -67 24 0 40 24 46 70 5 32 3 40 -10 40
-11 0 -17 -12 -19 -42 -2 -30 -8 -43 -18 -43 -10 0 -16 13 -18 43 -4 55 -22
55 -22 -1z"/>
<path d="M2320 2305 c0 -42 3 -55 15 -55 10 0 15 10 15 28 l1 27 20 -27 c11
-16 25 -28 30 -28 5 0 9 25 9 55 0 30 -4 55 -10 55 -5 0 -10 -15 -10 -32 l-1
-33 -27 33 c-15 18 -30 32 -34 32 -5 0 -8 -25 -8 -55z"/>
<path d="M1680 2260 c-22 -22 -25 -42 -10 -71 12 -22 68 -27 88 -7 20 20 14
65 -10 82 -30 21 -44 20 -68 -4z m60 -25 c10 -12 10 -18 0 -30 -25 -30 -61 -7
-46 30 3 8 12 15 19 15 8 0 20 -7 27 -15z"/>
<path d="M1950 2115 c0 -13 47 -15 360 -15 313 0 360 2 360 15 0 13 -47 15
-360 15 -313 0 -360 -2 -360 -15z"/>
<path d="M20 1550 l0 -220 60 0 60 0 0 85 0 85 75 0 75 0 0 45 0 45 -75 0 -75
0 0 40 0 40 90 0 90 0 0 50 0 50 -150 0 -150 0 0 -220z"/>
<path d="M610 1550 l0 -220 160 0 160 0 0 50 0 49 -97 3 -98 3 -3 168 -2 167
-60 0 -60 0 0 -220z"/>
<path d="M1313 1738 c-6 -18 -40 -118 -76 -221 l-66 -188 62 3 61 3 12 40 11
40 64 0 63 0 12 -40 11 -40 61 -3 61 -3 -74 216 c-41 119 -75 218 -75 221 0 2
-26 4 -58 4 -57 0 -59 -1 -69 -32z m90 -168 c10 -33 17 -62 17 -65 0 -3 -18
-5 -40 -5 -22 0 -40 2 -40 5 0 17 34 125 40 125 4 0 14 -27 23 -60z"/>
<path d="M1870 1550 l0 -220 60 0 60 0 0 70 c0 68 1 70 25 70 19 0 31 -13 61
-66 20 -36 42 -68 49 -70 7 -3 37 -4 68 -2 l56 3 -45 78 -46 79 20 21 c63 67
55 169 -18 231 -30 25 -36 26 -161 26 l-129 0 0 -220z m218 108 c7 -7 12 -24
12 -38 0 -37 -18 -50 -67 -50 l-43 0 0 50 0 50 43 0 c24 0 48 -5 55 -12z"/>
<path d="M2530 1550 l0 -220 60 0 59 0 3 110 3 109 89 -109 c88 -110 88 -110
132 -110 l44 0 0 220 0 220 -55 0 -54 0 -3 -112 -3 -113 -89 113 -89 112 -49
0 -48 0 0 -220z"/>
<path d="M1372 1068 c-20 -20 -15 -76 9 -88 52 -29 107 26 75 75 -18 27 -63
34 -84 13z m65 -52 c-4 -9 -16 -16 -27 -16 -29 0 -38 30 -15 47 16 11 21 11
33 -1 8 -8 12 -22 9 -30z"/>
<path d="M100 1045 c0 -13 67 -15 540 -15 473 0 540 2 540 15 0 13 -67 15
-540 15 -473 0 -540 -2 -540 -15z"/>
<path d="M110 795 l0 -55 35 0 c19 0 35 5 35 10 0 6 -11 10 -25 10 -23 0 -25
4 -25 45 0 25 -4 45 -10 45 -5 0 -10 -25 -10 -55z"/>
<path d="M280 795 l0 -55 35 0 c19 0 35 5 35 10 0 6 -9 10 -20 10 -11 0 -20 5
-20 10 0 6 7 10 15 10 8 0 15 5 15 10 0 6 -7 10 -15 10 -8 0 -15 7 -15 15 0 8
9 15 20 15 11 0 20 5 20 10 0 6 -16 10 -35 10 l-35 0 0 -55z"/>
<path d="M467 798 c-18 -57 -16 -68 9 -48 13 11 19 11 36 1 11 -7 22 -11 24
-9 7 8 -30 108 -41 108 -6 0 -19 -23 -28 -52z m37 -3 c3 -9 0 -15 -9 -15 -9 0
-12 6 -9 15 4 8 7 15 9 15 2 0 5 -7 9 -15z"/>
<path d="M640 795 c0 -42 3 -55 15 -55 9 0 15 9 16 23 l0 22 16 -22 c8 -13 22
-23 30 -23 12 0 13 3 4 14 -7 8 -9 25 -5 40 8 34 -10 56 -47 56 -28 0 -29 -1
-29 -55z m58 17 c2 -7 -3 -12 -12 -12 -9 0 -16 7 -16 16 0 17 22 14 28 -4z"/>
<path d="M830 795 c0 -30 5 -55 10 -55 6 0 10 11 10 25 0 14 3 25 6 25 3 0 15
-11 26 -25 29 -38 38 -31 38 30 0 30 -4 55 -10 55 -5 0 -10 -11 -10 -25 0 -14
-4 -25 -9 -25 -5 0 -16 11 -25 25 -25 39 -36 30 -36 -30z"/>
<path d="M1030 795 c0 -30 5 -55 10 -55 6 0 10 25 10 55 0 30 -4 55 -10 55 -5
0 -10 -25 -10 -55z"/>
<path d="M1160 795 c0 -42 3 -55 15 -55 10 0 15 10 15 28 l1 27 20 -27 c11
-16 25 -28 30 -28 5 0 9 25 9 55 0 30 -4 55 -10 55 -5 0 -10 -11 -10 -25 0
-14 -3 -25 -6 -25 -3 0 -15 11 -26 25 -29 38 -38 31 -38 -30z"/>
<path d="M1370 830 c-37 -37 -15 -82 44 -86 34 -3 36 -1 36 26 0 23 -5 30 -20
30 -11 0 -20 -4 -20 -10 0 -5 5 -10 12 -10 9 0 9 -3 1 -11 -20 -20 -45 -2 -41
28 2 24 7 28 31 26 29 -2 37 11 11 21 -25 9 -33 7 -54 -14z"/>
</g>
</svg>
