<svg id="Layer_1" data-name="Layer 1" xmlns="http://www.w3.org/2000/svg" viewBox="0 0 586 533.76"><defs><style>.cls-1{fill:#b6bedd;}.cls-2{font-size:126.09px;letter-spacing:0.37em;}.cls-2,.cls-3,.cls-4,.cls-5{fill:#f3f3f3;}.cls-2,.cls-3,.cls-5{font-family:Raleway-Black, Raleway;}.cls-3,.cls-5{font-size:30.02px;}.cls-3{letter-spacing:0.57em;}.cls-5{letter-spacing:0.57em;}</style></defs><title>whiteFlarn</title><path class="cls-1" d="M101.41,23.45c-60,40.52-92,116-61.88,245.18S101.3,509.79,159.05,528.79c58.73,19.32,133.78-19.36,222.15-85.67s163-122.77,162.18-193.93c-.76-67.93-65.51-118.55-174.14-176.12S179.45-29.27,101.41,23.45Z"/><text class="cls-2" transform="translate(-4.42 294.68)">FLARN</text><text class="cls-3" transform="translate(18.39 411.16)">LEARNING</text><rect class="cls-4" x="18.39" y="347.37" width="217.07" height="6"/><text class="cls-5" transform="translate(387.8 110.16)">FUN</text><rect class="cls-4" x="387.8" y="134.16" width="145.02" height="6"/><path class="cls-4" d="M342.49,127.26a11.58,11.58,0,1,1,11.58-11.58A11.59,11.59,0,0,1,342.49,127.26Zm0-17.16a5.58,5.58,0,1,0,5.58,5.58A5.58,5.58,0,0,0,342.49,110.1Z"/><path class="cls-4" d="M281.16,366a11.58,11.58,0,1,1,11.58-11.58A11.59,11.59,0,0,1,281.16,366Zm0-17.16a5.58,5.58,0,1,0,5.58,5.58A5.59,5.59,0,0,0,281.16,348.85Z"/></svg>